<svg width="18" height="18" viewBox="0 0 18 18" fill="none" xmlns="http://www.w3.org/2000/svg">
<path fill-rule="evenodd" clip-rule="evenodd" d="M18 16.5849L16.5986 2.90639C16.5384 2.31839 16.1814 1.8825 15.6392 1.64687L12.079 0.0991767C12.0672 0.0851605 12.0584 0.0693219 12.0435 0.0575466C11.9268 -0.0345405 11.7575 -0.0139372 11.6659 0.103802C11.3124 0.55724 10.2161 0.874005 8.99998 0.874005C7.78402 0.874005 6.68791 0.557237 6.33437 0.103802C6.24272 -0.0139336 6.07335 -0.0342606 5.95673 0.0575466C5.9418 0.0693201 5.93315 0.0851587 5.92143 0.0990332L2.3609 1.64687C1.81836 1.88276 1.46204 2.31574 1.4015 2.90639L0 16.5849L3.30818 17.0638L4.25475 6.98823L4.26145 18H13.7382L13.7332 7.01299L14.6919 17.0638L18 16.5849ZM6.28892 0.77501C6.88324 1.17194 7.87749 1.41457 9.00013 1.41457C10.1228 1.41457 11.117 1.17209 11.7114 0.775154C10.5481 3.77451 7.45242 3.77437 6.28885 0.775014L6.28892 0.77501Z" fill="#FF7D0D"/>
</svg>
