<svg width="15" height="22" viewBox="0 0 15 22" fill="none" xmlns="http://www.w3.org/2000/svg">
<path d="M10.9983 0H4.00056C3.85108 0 3.72955 0.107853 3.72955 0.240909C3.72955 0.373792 3.85088 0.481818 4.00056 0.481818H5.0929V5.08831C5.0929 5.2212 5.21423 5.32922 5.36391 5.32922C5.5134 5.32922 5.63492 5.22137 5.63492 5.08831V0.481818H9.36459V5.08831C9.36459 5.2212 9.48592 5.32922 9.6356 5.32922C9.78508 5.32922 9.90661 5.22137 9.90661 5.08831V0.481818H10.9989C11.1484 0.481818 11.27 0.373964 11.27 0.240909C11.2698 0.107853 11.1479 0 10.9984 0H10.9983Z" fill="#AAAAAA"/>
<path d="M13.0057 20.3627C13.0057 19.8603 12.5463 19.4518 11.981 19.4518C11.4169 19.4518 10.9575 19.8602 10.9575 20.3627V21.0891C10.9575 21.5914 11.4169 22 11.981 22C12.5461 22 13.0057 21.5916 13.0057 21.0891V20.3627Z" fill="#AAAAAA"/>
<path d="M14.999 17.4825H0V18.9679C0 19.6374 0.612306 20.1817 1.36487 20.1817H1.47164C1.57294 19.5001 2.22324 18.9698 3.01697 18.9698C3.81129 18.9698 4.46157 19.5001 4.56288 20.1817H10.4373C10.538 19.5001 11.1883 18.9698 11.9821 18.9698C12.7758 18.9698 13.4267 19.5001 13.528 20.1817H13.6342C14.3873 20.1817 14.9996 19.6374 14.9996 18.9679L15 17.4825H14.999Z" fill="#AAAAAA"/>
<path d="M4.0412 20.3627C4.0412 19.8603 3.5812 19.4518 3.01649 19.4518C2.45178 19.4518 1.99237 19.8602 1.99237 20.3627V21.0891C1.99237 21.5914 2.4518 22 3.01649 22C3.58119 22 4.0412 21.5916 4.0412 21.0891V20.3627Z" fill="#AAAAAA"/>
<path d="M0 16.5122H14.999V17.0006H0V16.5122Z" fill="#AAAAAA"/>
<path d="M0 7.60675H14.999V8.09428H0V7.60675Z" fill="#AAAAAA"/>
<path d="M0 8.57571H14.999V16.0314H0V8.57571Z" fill="#AAAAAA"/>
<path d="M0 7.12508H14.999V5.63914C14.999 4.96969 14.3867 4.42535 13.6335 4.42535H1.36516C0.612402 4.42535 0.000290125 4.96965 0.000290125 5.63914L0 7.12508Z" fill="#AAAAAA"/>
</svg>
